# xmcd
#
# Track frame offsets:
# 150
# 18835
# 35367
# 50020
# 70327
# 91680
# 109935
# 125327
# 142132
# 162682
# 184745
# 207237
# 226037
# 243677
# 260657
# 279460
#
# Disc length: 4062 seconds
#
# Revision: 0
# Processed by: cddbd v1.5.2PL0 Copyright (c) Steve Scherf et al.
# Submitted via: MacMP3 Pro 5.0 (http://mp3.act2.co.jp/)
#
DISCID=e90fdc10
DTITLE=Patria - My Rules
DYEAR=1900
DGENRE=
TTITLE0=Heart 2 heart
TTITLE1=My rules
TTITLE2=Baby feel my....
TTITLE3=First love
TTITLE4=Passion
TTITLE5=My flow
TTITLE6=Boyfriend
TTITLE7=Addicted
TTITLE8=My wish
TTITLE9=I've missed you
TTITLE10=One more chance
TTITLE11=Good love
TTITLE12=One door closes
TTITLE13=Bad for my heart
TTITLE14=Watchin' you
TTITLE15=Heart 2 heart (Derek's mad mix)
EXTD=
EXTT0=
EXTT1=
EXTT2=
EXTT3=
EXTT4=
EXTT5=
EXTT6=
EXTT7=
EXTT8=
EXTT9=
EXTT10=
EXTT11=
EXTT12=
EXTT13=
EXTT14=
EXTT15=
PLAYORDER=
